<?xml version="1.0" encoding="utf-8"?>
<!-- Generator: Adobe Illustrator 19.2.1, SVG Export Plug-In . SVG Version: 6.00 Build 0)  -->
<svg version="1.1" id="Layer_1" xmlns="http://www.w3.org/2000/svg" xmlns:xlink="http://www.w3.org/1999/xlink" x="0px" y="0px"
	 viewBox="0 0 100 100" style="enable-background:new 0 0 100 100;" xml:space="preserve">
<style type="text/css">
	.st0{fill:#010101;}
</style>
<g>
	<path class="st0" d="M81.2,38.2c-0.1,4.3-1.1,8.4-2.8,12.2c9,1.5,9.1,8.8,9.1,12.2c0,3.1,0,12.5-12.5,12.5H62.5
		c-8.1,0-15.4,3.9-20,10c-3-2.3-5-5.9-5-10V62.5c0-2.5,0.4-4.4,1.1-6c-0.4-0.1-0.7-0.2-1.1-0.2H25.6c-0.4,1.9-0.6,4-0.6,6.2V75
		c0,13.8,11.2,25,25,25c0-6.9,5.6-12.5,12.5-12.5H75c12.5,0,25-7,25-25C100,47.2,91.3,40.1,81.2,38.2z"/>
</g>
<path class="st0" d="M50,12.5c4.7,0,12.5,1.6,12.5,12.5v12.5c0,4.1-2,7.7-5,10c-4.6-6.1-11.8-10-20-10H25
	c-12.5,0-12.5-9.4-12.5-12.5c0-3.7,0-12.5,12.5-12.5H50 M50,0H25C12.5,0,0,6.6,0,25c0,18,12.5,25,25,25h12.5
	C44.4,50,50,55.6,50,62.5c13.8,0,25-11.2,25-25V25C75,7.7,62.5,0,50,0L50,0z"/>
</svg>
